<svg id="Layer_1" data-name="Layer 1" xmlns="http://www.w3.org/2000/svg" width="119.06" height="119.06" viewBox="0 0 119.06 119.06">
  <title>pencil in hand</title>
  <g>
    <path d="M1212.41,1606.74l8.86-8.86a13.41,13.41,0,0,0-19-19l-8.87,8.87,11.74,11.74a1.34,1.34,0,1,1-1.89,1.89l-11.74-11.74-9.07,9.07a9.69,9.69,0,0,1,.62,3.38V1611a9.74,9.74,0,0,1-18,5.1l-7.69,7.69h37.94l15.21-15.21Z" transform="translate(-1106.14 -1574.98)" fill="#f4534e"/>
    <path d="M1173.35,1595a7.09,7.09,0,0,0-7.08,7.08V1611a7.08,7.08,0,0,0,14.16,0v-8.95A7.09,7.09,0,0,0,1173.35,1595Zm5.16,13.83a1.33,1.33,0,0,1-1.89,0,4.62,4.62,0,0,0-6.54,0,1.34,1.34,0,0,1-1.89-1.89,7.29,7.29,0,0,1,10.31,0A1.34,1.34,0,0,1,1178.51,1608.85Z" transform="translate(-1106.14 -1574.98)" fill="#66cdcc"/>
    <path d="M1193.44,1657.51a7.08,7.08,0,0,0,0-14.16,1.34,1.34,0,1,1,0-2.67h3.72l-0.08-.1a3.18,3.18,0,0,1-.18-0.3,6.66,6.66,0,0,1-.47-0.93l-0.08-.21a7,7,0,0,1,0-4.9l0.07-.19a6.67,6.67,0,0,1,.48-0.93,3.22,3.22,0,0,1,.18-0.3,7.1,7.1,0,0,1,.89-1.09l4.17-4.17a7,7,0,0,0-3.65-1h-56.4a7.08,7.08,0,0,0,0,14.16h41.35a1.34,1.34,0,0,1,0,2.67h-26.79a7.08,7.08,0,1,0,0,14.16h22.66a1.34,1.34,0,1,1,0,2.67h-17.82a7.08,7.08,0,0,0,0,14.16h11.82a1.34,1.34,0,1,1,0,2.67h-5.23a7.08,7.08,0,0,0,.23,14.15h25.12a7.08,7.08,0,0,0,0-14.16,1.34,1.34,0,1,1,0-2.67,7.08,7.08,0,0,0,0-14.16A1.34,1.34,0,1,1,1193.44,1657.51Zm-45.51-18.82a1.34,1.34,0,0,1-1.89-1.89,4.62,4.62,0,0,0,0-6.54,1.34,1.34,0,0,1,1.89-1.89A7.29,7.29,0,0,1,1147.93,1638.69Z" transform="translate(-1106.14 -1574.98)" fill="#66cdcc"/>
    <path d="M1151.74,1667.26A9.73,9.73,0,0,1,1155,1660a9.75,9.75,0,0,1-5-16.69h-7.86a9.69,9.69,0,0,1-3.55-.68l-7.47,7.47,11.74,11.74a1.34,1.34,0,1,1-1.89,1.89L1129.18,1652l-13.26,13.26a13.42,13.42,0,0,0-2.73,15l-3.31,3.31a1.34,1.34,0,0,0,0,1.89l1.46,1.46-4.82,4.82a1.34,1.34,0,1,0,1.89,1.89l4.82-4.82,1.46,1.46a1.33,1.33,0,0,0,1.89,0l3.31-3.31a13.42,13.42,0,0,0,15-2.73l16.85-16.85S1151.74,1667.31,1151.74,1667.26Z" transform="translate(-1106.14 -1574.98)" fill="#f4534e"/>
    <path d="M1210.46,1608.57l1,1a8.79,8.79,0,0,1,0,12.42l-11.61,11.61a4.41,4.41,0,0,0-.56.68s0,0.09-.07.14a4.31,4.31,0,0,0-.33.63l0,0.06a4.29,4.29,0,0,0,0,3.17l0,0.06a4.32,4.32,0,0,0,.33.63s0,0.09.07,0.14a4.41,4.41,0,0,0,.56.68,4.37,4.37,0,1,0,4.74-7.14l8.76-8.76a11.45,11.45,0,0,0,0-16.2l-1.29-1.29" transform="translate(-1106.14 -1574.98)" fill="#f4534e"/>
  </g>
</svg>
