<?xml version="1.0" encoding="UTF-8" standalone="no"?>
<!DOCTYPE svg PUBLIC "-//W3C//DTD SVG 1.1//EN"
 "http://www.w3.org/Graphics/SVG/1.1/DTD/svg11.dtd">
<!-- Generated by graphviz version 2.40.1 (20161225.0304)
 -->
<!-- Title: G Pages: 1 -->
<svg width="360pt" height="404pt"
 viewBox="0.00 0.00 359.98 404.00" xmlns="http://www.w3.org/2000/svg" xmlns:xlink="http://www.w3.org/1999/xlink">
<g id="graph0" class="graph" transform="scale(1 1) rotate(0) translate(4 400)">
<title>G</title>
<polygon fill="#ffffff" stroke="transparent" points="-4,4 -4,-400 355.9825,-400 355.9825,4 -4,4"/>
<!-- start -->
<g id="node1" class="node">
<title>start</title>
<text text-anchor="middle" x="183.6634" y="-373.8" font-family="Times,serif" font-size="14.00" fill="#000000">start</text>
</g>
<!-- gen_random -->
<g id="node2" class="node">
<title>gen_random</title>
<text text-anchor="middle" x="183.6634" y="-301.8" font-family="Times,serif" font-size="14.00" fill="#000000">gen_random</text>
</g>
<!-- start&#45;&gt;gen_random -->
<g id="edge1" class="edge">
<title>start&#45;&gt;gen_random</title>
<path fill="none" stroke="#000000" stroke-dasharray="1,5" d="M183.6634,-359.8314C183.6634,-352.131 183.6634,-342.9743 183.6634,-334.4166"/>
<polygon fill="#000000" stroke="#000000" points="187.1635,-334.4132 183.6634,-324.4133 180.1635,-334.4133 187.1635,-334.4132"/>
</g>
<!-- guess_input -->
<g id="node3" class="node">
<title>guess_input</title>
<polygon fill="none" stroke="#000000" points="225.0485,-252 142.2783,-252 142.2783,-216 225.0485,-216 225.0485,-252"/>
<text text-anchor="middle" x="183.6634" y="-229.8" font-family="Times,serif" font-size="14.00" fill="#000000">guess_input</text>
</g>
<!-- gen_random&#45;&gt;guess_input -->
<g id="edge2" class="edge">
<title>gen_random&#45;&gt;guess_input</title>
<path fill="none" stroke="#000000" d="M183.6634,-287.8314C183.6634,-280.131 183.6634,-270.9743 183.6634,-262.4166"/>
<polygon fill="#000000" stroke="#000000" points="187.1635,-262.4132 183.6634,-252.4133 180.1635,-262.4133 187.1635,-262.4132"/>
</g>
<!-- true -->
<g id="node4" class="node">
<title>true</title>
<ellipse fill="none" stroke="#000000" cx="63.6634" cy="-162" rx="27" ry="18"/>
<text text-anchor="middle" x="63.6634" y="-157.8" font-family="Times,serif" font-size="14.00" fill="#000000">true</text>
</g>
<!-- guess_input&#45;&gt;true -->
<g id="edge3" class="edge">
<title>guess_input&#45;&gt;true</title>
<path fill="none" stroke="#000000" d="M153.3823,-215.8314C134.7318,-204.641 110.9558,-190.3755 92.5661,-179.3416"/>
<polygon fill="#000000" stroke="#000000" points="94.1328,-176.2 83.7572,-174.0563 90.5313,-182.2025 94.1328,-176.2"/>
</g>
<!-- false -->
<g id="node5" class="node">
<title>false</title>
<ellipse fill="none" stroke="#000000" cx="183.6634" cy="-162" rx="29.0299" ry="18"/>
<text text-anchor="middle" x="183.6634" y="-157.8" font-family="Times,serif" font-size="14.00" fill="#000000">false</text>
</g>
<!-- guess_input&#45;&gt;false -->
<g id="edge4" class="edge">
<title>guess_input&#45;&gt;false</title>
<path fill="none" stroke="#000000" d="M183.6634,-215.8314C183.6634,-208.131 183.6634,-198.9743 183.6634,-190.4166"/>
<polygon fill="#000000" stroke="#000000" points="187.1635,-190.4132 183.6634,-180.4133 180.1635,-190.4133 187.1635,-190.4132"/>
</g>
<!-- NaN -->
<g id="node6" class="node">
<title>NaN</title>
<ellipse fill="none" stroke="#000000" cx="301.6634" cy="-162" rx="29.0337" ry="18"/>
<text text-anchor="middle" x="301.6634" y="-157.8" font-family="Times,serif" font-size="14.00" fill="#000000">NaN</text>
</g>
<!-- guess_input&#45;&gt;NaN -->
<g id="edge5" class="edge">
<title>guess_input&#45;&gt;NaN</title>
<path fill="none" stroke="#000000" d="M213.4398,-215.8314C231.3469,-204.905 254.059,-191.0467 271.9541,-180.1277"/>
<polygon fill="#000000" stroke="#000000" points="274.1087,-182.9132 280.8221,-174.7168 270.4626,-176.9377 274.1087,-182.9132"/>
</g>
<!-- num_attempts -->
<g id="node7" class="node">
<title>num_attempts</title>
<polygon fill="none" stroke="#000000" points="95.4908,-108 -.164,-108 -.164,-72 95.4908,-72 95.4908,-108"/>
<text text-anchor="middle" x="47.6634" y="-85.8" font-family="Times,serif" font-size="14.00" fill="#000000">num_attempts</text>
</g>
<!-- true&#45;&gt;num_attempts -->
<g id="edge6" class="edge">
<title>true&#45;&gt;num_attempts</title>
<path fill="none" stroke="#000000" d="M59.6259,-143.8314C57.9147,-136.131 55.8799,-126.9743 53.9782,-118.4166"/>
<polygon fill="#000000" stroke="#000000" points="57.3413,-117.4159 51.7552,-108.4133 50.508,-118.9344 57.3413,-117.4159"/>
</g>
<!-- bigger -->
<g id="node10" class="node">
<title>bigger</title>
<polygon fill="none" stroke="#000000" points="167.6634,-108 113.6634,-108 113.6634,-72 167.6634,-72 167.6634,-108"/>
<text text-anchor="middle" x="140.6634" y="-85.8" font-family="Times,serif" font-size="14.00" fill="#000000">bigger</text>
</g>
<!-- false&#45;&gt;bigger -->
<g id="edge10" class="edge">
<title>false&#45;&gt;bigger</title>
<path fill="none" stroke="#000000" d="M173.473,-144.937C168.4667,-136.5544 162.3168,-126.2569 156.6998,-116.8516"/>
<polygon fill="#000000" stroke="#000000" points="159.6647,-114.99 151.5323,-108.1992 153.6549,-118.5792 159.6647,-114.99"/>
</g>
<!-- smaller -->
<g id="node11" class="node">
<title>smaller</title>
<polygon fill="none" stroke="#000000" points="243.37,-108 185.9568,-108 185.9568,-72 243.37,-72 243.37,-108"/>
<text text-anchor="middle" x="214.6634" y="-85.8" font-family="Times,serif" font-size="14.00" fill="#000000">smaller</text>
</g>
<!-- false&#45;&gt;smaller -->
<g id="edge11" class="edge">
<title>false&#45;&gt;smaller</title>
<path fill="none" stroke="#000000" d="M191.1676,-144.5708C194.668,-136.4409 198.9176,-126.571 202.8351,-117.4722"/>
<polygon fill="#000000" stroke="#000000" points="206.1646,-118.5896 206.9045,-108.0206 199.7352,-115.8213 206.1646,-118.5896"/>
</g>
<!-- nan_message -->
<g id="node9" class="node">
<title>nan_message</title>
<polygon fill="none" stroke="#000000" points="351.8023,-108 261.5245,-108 261.5245,-72 351.8023,-72 351.8023,-108"/>
<text text-anchor="middle" x="306.6634" y="-85.8" font-family="Times,serif" font-size="14.00" fill="#000000">nan_message</text>
</g>
<!-- NaN&#45;&gt;nan_message -->
<g id="edge8" class="edge">
<title>NaN&#45;&gt;nan_message</title>
<path fill="none" stroke="#000000" d="M302.9251,-143.8314C303.4599,-136.131 304.0957,-126.9743 304.69,-118.4166"/>
<polygon fill="#000000" stroke="#000000" points="308.1834,-118.6317 305.3847,-108.4133 301.2002,-118.1467 308.1834,-118.6317"/>
</g>
<!-- exit -->
<g id="node8" class="node">
<title>exit</title>
<text text-anchor="middle" x="176.6634" y="-13.8" font-family="Times,serif" font-size="14.00" fill="#000000">exit</text>
</g>
<!-- num_attempts&#45;&gt;exit -->
<g id="edge7" class="edge">
<title>num_attempts&#45;&gt;exit</title>
<path fill="none" stroke="#000000" stroke-dasharray="1,5" d="M80.2155,-71.8314C98.5604,-61.5924 121.5181,-48.7788 140.4326,-38.2219"/>
<polygon fill="#000000" stroke="#000000" points="142.3289,-41.1717 149.3551,-33.2418 138.9173,-35.0594 142.3289,-41.1717"/>
</g>
<!-- nan_message&#45;&gt;exit -->
<g id="edge9" class="edge">
<title>nan_message&#45;&gt;exit</title>
<path fill="none" stroke="#000000" stroke-dasharray="1,5" d="M273.8589,-71.8314C255.1579,-61.4739 231.7002,-48.4819 212.5151,-37.8563"/>
<polygon fill="#000000" stroke="#000000" points="214.2011,-34.7892 203.7574,-33.0059 210.8096,-40.9127 214.2011,-34.7892"/>
</g>
<!-- bigger&#45;&gt;guess_input -->
<g id="edge12" class="edge">
<title>bigger&#45;&gt;guess_input</title>
<path fill="none" stroke="#000000" d="M138.8023,-108.1508C137.5494,-126.739 137.3954,-156.2002 145.6634,-180 149.0697,-189.8051 154.8202,-199.4297 160.8307,-207.7747"/>
<polygon fill="#000000" stroke="#000000" points="158.2418,-210.1508 167.1008,-215.962 163.7993,-205.8946 158.2418,-210.1508"/>
</g>
<!-- smaller&#45;&gt;guess_input -->
<g id="edge13" class="edge">
<title>smaller&#45;&gt;guess_input</title>
<path fill="none" stroke="#000000" d="M219.9861,-108.0451C224.547,-126.5492 229.2791,-155.9445 221.6634,-180 218.5819,-189.7336 213.0451,-199.2305 207.1345,-207.4772"/>
<polygon fill="#000000" stroke="#000000" points="204.2324,-205.51 200.9269,-215.5761 209.7882,-209.7684 204.2324,-205.51"/>
</g>
</g>
</svg>
