<?xml version="1.0" encoding="UTF-8" standalone="no"?>
<!DOCTYPE svg PUBLIC "-//W3C//DTD SVG 1.1//EN"
 "http://www.w3.org/Graphics/SVG/1.1/DTD/svg11.dtd">
<!-- Generated by graphviz version 7.1.0 (0)
 -->
<!-- Title: G Pages: 1 -->
<svg width="276pt" height="576pt"
 viewBox="0.00 0.00 275.80 576.00" xmlns="http://www.w3.org/2000/svg" xmlns:xlink="http://www.w3.org/1999/xlink">
<g id="graph0" class="graph" transform="scale(0.760831 0.760831) rotate(0) translate(4 753.07)">
<title>G</title>
<polygon fill="white" stroke="none" points="-4,4 -4,-753.07 358.5,-753.07 358.5,4 -4,4"/>
<!-- start -->
<g id="node1" class="node">
<title>start</title>
<text text-anchor="middle" x="221" y="-727.37" font-family="Times,serif" font-size="14.00">start</text>
</g>
<!-- terminal_input -->
<g id="node2" class="node">
<title>terminal_input</title>
<polygon fill="none" stroke="black" points="282,-677.07 160,-677.07 160,-641.07 282,-641.07 282,-677.07"/>
<text text-anchor="middle" x="221" y="-655.37" font-family="Times,serif" font-size="14.00">terminal_input</text>
</g>
<!-- start&#45;&gt;terminal_input -->
<g id="edge1" class="edge">
<title>start&#45;&gt;terminal_input</title>
<path fill="none" stroke="black" stroke-dasharray="1,5" d="M221,-713.27C221,-713.27 221,-688.93 221,-688.93"/>
<polygon fill="black" stroke="black" points="224.5,-688.93 221,-678.93 217.5,-688.93 224.5,-688.93"/>
</g>
<!-- add -->
<g id="node3" class="node">
<title>add</title>
<ellipse fill="none" stroke="black" cx="52" cy="-559.47" rx="27.9" ry="27.9"/>
<ellipse fill="none" stroke="black" cx="52" cy="-559.47" rx="31.9" ry="31.9"/>
<text text-anchor="middle" x="52" y="-555.77" font-family="Times,serif" font-size="14.00">add</text>
</g>
<!-- terminal_input&#45;&gt;add -->
<g id="edge2" class="edge">
<title>terminal_input&#45;&gt;add</title>
<path fill="none" stroke="black" d="M167.7,-640.61C167.7,-614.52 167.7,-570 167.7,-570 167.7,-570 93.91,-570 93.91,-570"/>
<polygon fill="black" stroke="black" points="93.91,-566.5 83.91,-570 93.91,-573.5 93.91,-566.5"/>
</g>
<!-- search -->
<g id="node4" class="node">
<title>search</title>
<ellipse fill="none" stroke="black" cx="221" cy="-559.47" rx="41.68" ry="41.68"/>
<ellipse fill="none" stroke="black" cx="221" cy="-559.47" rx="45.69" ry="45.69"/>
<text text-anchor="middle" x="221" y="-555.77" font-family="Times,serif" font-size="14.00">search</text>
</g>
<!-- terminal_input&#45;&gt;search -->
<g id="edge3" class="edge">
<title>terminal_input&#45;&gt;search</title>
<path fill="none" stroke="black" d="M221,-640.8C221,-640.8 221,-616.9 221,-616.9"/>
<polygon fill="black" stroke="black" points="224.5,-616.9 221,-606.9 217.5,-616.9 224.5,-616.9"/>
</g>
<!-- run_again -->
<g id="node5" class="node">
<title>run_again</title>
<ellipse fill="none" stroke="black" cx="113" cy="-320.34" rx="56.59" ry="56.59"/>
<text text-anchor="middle" x="113" y="-316.64" font-family="Times,serif" font-size="14.00">run_again</text>
</g>
<!-- add&#45;&gt;run_again -->
<g id="edge4" class="edge">
<title>add&#45;&gt;run_again</title>
<path fill="none" stroke="black" d="M81.99,-548C100.89,-548 121.75,-548 121.75,-548 121.75,-548 121.75,-388.13 121.75,-388.13"/>
<polygon fill="black" stroke="black" points="125.25,-388.13 121.75,-378.13 118.25,-388.13 125.25,-388.13"/>
</g>
<!-- write_to_file -->
<g id="node6" class="node">
<title>write_to_file</title>
<text text-anchor="middle" x="52" y="-441.68" font-family="Times,serif" font-size="14.00">write_to_file</text>
</g>
<!-- add&#45;&gt;write_to_file -->
<g id="edge5" class="edge">
<title>add&#45;&gt;write_to_file</title>
<path fill="none" stroke="black" stroke-dasharray="1,5" d="M52,-527.08C52,-527.08 52,-474.82 52,-474.82"/>
<polygon fill="black" stroke="black" points="55.5,-474.82 52,-464.82 48.5,-474.82 55.5,-474.82"/>
</g>
<!-- false -->
<g id="node7" class="node">
<title>false</title>
<ellipse fill="none" stroke="black" cx="172" cy="-445.38" rx="32.49" ry="32.49"/>
<text text-anchor="middle" x="172" y="-441.68" font-family="Times,serif" font-size="14.00">false</text>
</g>
<!-- search&#45;&gt;false -->
<g id="edge11" class="edge">
<title>search&#45;&gt;false</title>
<path fill="none" stroke="black" d="M189.95,-525.55C189.95,-525.55 189.95,-484.36 189.95,-484.36"/>
<polygon fill="black" stroke="black" points="193.45,-484.36 189.95,-474.36 186.45,-484.36 193.45,-484.36"/>
</g>
<!-- true -->
<g id="node11" class="node">
<title>true</title>
<ellipse fill="none" stroke="black" cx="271" cy="-445.38" rx="30.59" ry="30.59"/>
<text text-anchor="middle" x="271" y="-441.68" font-family="Times,serif" font-size="14.00">true</text>
</g>
<!-- search&#45;&gt;true -->
<g id="edge12" class="edge">
<title>search&#45;&gt;true</title>
<path fill="none" stroke="black" d="M253.52,-526.78C253.52,-526.78 253.52,-482.34 253.52,-482.34"/>
<polygon fill="black" stroke="black" points="257.02,-482.34 253.52,-472.34 250.02,-482.34 257.02,-482.34"/>
</g>
<!-- yes -->
<g id="node8" class="node">
<title>yes</title>
<ellipse fill="none" stroke="black" cx="299" cy="-197.14" rx="26.78" ry="26.78"/>
<ellipse fill="none" stroke="black" cx="299" cy="-197.14" rx="30.8" ry="30.8"/>
<text text-anchor="middle" x="299" y="-193.44" font-family="Times,serif" font-size="14.00">yes</text>
</g>
<!-- run_again&#45;&gt;yes -->
<g id="edge7" class="edge">
<title>run_again&#45;&gt;yes</title>
<path fill="none" stroke="black" d="M155.9,-283C155.9,-246.7 155.9,-197 155.9,-197 155.9,-197 256.44,-197 256.44,-197"/>
<polygon fill="black" stroke="black" points="256.44,-200.5 266.44,-197 256.44,-193.5 256.44,-200.5"/>
</g>
<!-- no -->
<g id="node9" class="node">
<title>no</title>
<ellipse fill="none" stroke="black" cx="113" cy="-197.14" rx="22.18" ry="22.18"/>
<ellipse fill="none" stroke="black" cx="113" cy="-197.14" rx="26.2" ry="26.2"/>
<text text-anchor="middle" x="113" y="-193.44" font-family="Times,serif" font-size="14.00">no</text>
</g>
<!-- run_again&#45;&gt;no -->
<g id="edge9" class="edge">
<title>run_again&#45;&gt;no</title>
<path fill="none" stroke="black" d="M113,-263.43C113,-263.43 113,-235.21 113,-235.21"/>
<polygon fill="black" stroke="black" points="116.5,-235.21 113,-225.21 109.5,-235.21 116.5,-235.21"/>
</g>
<!-- false&#45;&gt;run_again -->
<g id="edge6" class="edge">
<title>false&#45;&gt;run_again</title>
<path fill="none" stroke="black" d="M154.52,-417.63C154.52,-417.63 154.52,-370.9 154.52,-370.9"/>
<polygon fill="black" stroke="black" points="158.02,-370.9 154.52,-360.9 151.02,-370.9 158.02,-370.9"/>
</g>
<!-- yes&#45;&gt;terminal_input -->
<g id="edge8" class="edge">
<title>yes&#45;&gt;terminal_input</title>
<path fill="none" stroke="black" d="M330,-197C342.71,-197 354.5,-197 354.5,-197 354.5,-197 354.5,-659 354.5,-659 354.5,-659 293.79,-659 293.79,-659"/>
<polygon fill="black" stroke="black" points="293.79,-655.5 283.79,-659 293.79,-662.5 293.79,-655.5"/>
</g>
<!-- quit -->
<g id="node10" class="node">
<title>quit</title>
<ellipse fill="none" stroke="black" cx="113" cy="-101.25" rx="29.5" ry="29.5"/>
<text text-anchor="middle" x="113" y="-97.55" font-family="Times,serif" font-size="14.00">quit</text>
</g>
<!-- no&#45;&gt;quit -->
<g id="edge10" class="edge">
<title>no&#45;&gt;quit</title>
<path fill="none" stroke="black" d="M113,-170.68C113,-170.68 113,-142.51 113,-142.51"/>
<polygon fill="black" stroke="black" points="116.5,-142.51 113,-132.51 109.5,-142.51 116.5,-142.51"/>
</g>
<!-- exit -->
<g id="node13" class="node">
<title>exit</title>
<text text-anchor="middle" x="113" y="-14.3" font-family="Times,serif" font-size="14.00">exit</text>
</g>
<!-- quit&#45;&gt;exit -->
<g id="edge15" class="edge">
<title>quit&#45;&gt;exit</title>
<path fill="none" stroke="black" stroke-dasharray="1,5" d="M113,-71.66C113,-71.66 113,-47.37 113,-47.37"/>
<polygon fill="black" stroke="black" points="116.5,-47.37 113,-37.37 109.5,-47.37 116.5,-47.37"/>
</g>
<!-- true&#45;&gt;run_again -->
<g id="edge14" class="edge">
<title>true&#45;&gt;run_again</title>
<path fill="none" stroke="black" d="M260.82,-416.44C260.82,-390.66 260.82,-357 260.82,-357 260.82,-357 168.06,-357 168.06,-357"/>
<polygon fill="black" stroke="black" points="168.06,-353.5 158.06,-357 168.06,-360.5 168.06,-353.5"/>
</g>
<!-- terminal_output -->
<g id="node12" class="node">
<title>terminal_output</title>
<polygon fill="none" stroke="black" points="336.5,-338.34 205.5,-338.34 205.5,-302.34 336.5,-302.34 336.5,-338.34"/>
<text text-anchor="middle" x="271" y="-316.64" font-family="Times,serif" font-size="14.00">terminal_output</text>
</g>
<!-- true&#45;&gt;terminal_output -->
<g id="edge13" class="edge">
<title>true&#45;&gt;terminal_output</title>
<path fill="none" stroke="black" stroke-dasharray="1,5" d="M281.18,-416.06C281.18,-416.06 281.18,-350.14 281.18,-350.14"/>
<polygon fill="black" stroke="black" points="284.68,-350.14 281.18,-340.14 277.68,-350.14 284.68,-350.14"/>
</g>
</g>
</svg>
