<?xml version="1.0" encoding="UTF-8" standalone="no"?>
<!DOCTYPE svg PUBLIC "-//W3C//DTD SVG 1.1//EN"
 "http://www.w3.org/Graphics/SVG/1.1/DTD/svg11.dtd">
<!-- Generated by graphviz version 2.40.1 (20161225.0304)
 -->
<!-- Title: G Pages: 1 -->
<svg width="470pt" height="404pt"
 viewBox="0.00 0.00 470.43 404.00" xmlns="http://www.w3.org/2000/svg" xmlns:xlink="http://www.w3.org/1999/xlink">
<g id="graph0" class="graph" transform="scale(1 1) rotate(0) translate(4 400)">
<title>G</title>
<polygon fill="#ffffff" stroke="transparent" points="-4,4 -4,-400 466.4327,-400 466.4327,4 -4,4"/>
<!-- start -->
<g id="node1" class="node">
<title>start</title>
<text text-anchor="middle" x="324.4327" y="-373.8" font-family="Times,serif" font-size="14.00" fill="#000000">start</text>
</g>
<!-- user_input -->
<g id="node2" class="node">
<title>user_input</title>
<polygon fill="none" stroke="#000000" points="362.0338,-324 286.8316,-324 286.8316,-288 362.0338,-288 362.0338,-324"/>
<text text-anchor="middle" x="324.4327" y="-301.8" font-family="Times,serif" font-size="14.00" fill="#000000">user_input</text>
</g>
<!-- start&#45;&gt;user_input -->
<g id="edge1" class="edge">
<title>start&#45;&gt;user_input</title>
<path fill="none" stroke="#000000" stroke-dasharray="1,5" d="M324.4327,-359.8314C324.4327,-352.131 324.4327,-342.9743 324.4327,-334.4166"/>
<polygon fill="#000000" stroke="#000000" points="327.9328,-334.4132 324.4327,-324.4133 320.9328,-334.4133 327.9328,-334.4132"/>
</g>
<!-- yes -->
<g id="node3" class="node">
<title>yes</title>
<ellipse fill="none" stroke="#000000" cx="256.4327" cy="-234" rx="27" ry="18"/>
<text text-anchor="middle" x="256.4327" y="-229.8" font-family="Times,serif" font-size="14.00" fill="#000000">yes</text>
</g>
<!-- user_input&#45;&gt;yes -->
<g id="edge2" class="edge">
<title>user_input&#45;&gt;yes</title>
<path fill="none" stroke="#000000" d="M307.2734,-287.8314C298.3693,-278.4034 287.4035,-266.7926 277.9383,-256.7706"/>
<polygon fill="#000000" stroke="#000000" points="280.4625,-254.3459 271.0517,-249.479 275.3734,-259.1523 280.4625,-254.3459"/>
</g>
<!-- no -->
<g id="node4" class="node">
<title>no</title>
<ellipse fill="none" stroke="#000000" cx="435.4327" cy="-234" rx="27" ry="18"/>
<text text-anchor="middle" x="435.4327" y="-229.8" font-family="Times,serif" font-size="14.00" fill="#000000">no</text>
</g>
<!-- user_input&#45;&gt;no -->
<g id="edge3" class="edge">
<title>user_input&#45;&gt;no</title>
<path fill="none" stroke="#000000" d="M352.4427,-287.8314C369.133,-277.0052 390.2607,-263.3008 407.0214,-252.429"/>
<polygon fill="#000000" stroke="#000000" points="409.3428,-255.0951 415.8277,-246.7168 405.5334,-249.2223 409.3428,-255.0951"/>
</g>
<!-- celsius -->
<g id="node5" class="node">
<title>celsius</title>
<ellipse fill="none" stroke="#000000" cx="81.4327" cy="-162" rx="37.1347" ry="18"/>
<text text-anchor="middle" x="81.4327" y="-157.8" font-family="Times,serif" font-size="14.00" fill="#000000">celsius</text>
</g>
<!-- yes&#45;&gt;celsius -->
<g id="edge4" class="edge">
<title>yes&#45;&gt;celsius</title>
<path fill="none" stroke="#000000" d="M233.1941,-224.439C204.1291,-212.4808 153.9811,-191.8485 119.3304,-177.5922"/>
<polygon fill="#000000" stroke="#000000" points="120.5781,-174.3209 109.9985,-173.7528 117.9146,-180.7944 120.5781,-174.3209"/>
</g>
<!-- inches -->
<g id="node6" class="node">
<title>inches</title>
<ellipse fill="none" stroke="#000000" cx="172.4327" cy="-162" rx="35.9135" ry="18"/>
<text text-anchor="middle" x="172.4327" y="-157.8" font-family="Times,serif" font-size="14.00" fill="#000000">inches</text>
</g>
<!-- yes&#45;&gt;inches -->
<g id="edge5" class="edge">
<title>yes&#45;&gt;inches</title>
<path fill="none" stroke="#000000" d="M239.837,-219.7751C228.0063,-209.6345 211.8679,-195.8016 198.3486,-184.2136"/>
<polygon fill="#000000" stroke="#000000" points="200.614,-181.5456 190.7436,-177.6951 196.0584,-186.8604 200.614,-181.5456"/>
</g>
<!-- liters -->
<g id="node7" class="node">
<title>liters</title>
<ellipse fill="none" stroke="#000000" cx="256.4327" cy="-162" rx="30.19" ry="18"/>
<text text-anchor="middle" x="256.4327" y="-157.8" font-family="Times,serif" font-size="14.00" fill="#000000">liters</text>
</g>
<!-- yes&#45;&gt;liters -->
<g id="edge6" class="edge">
<title>yes&#45;&gt;liters</title>
<path fill="none" stroke="#000000" d="M256.4327,-215.8314C256.4327,-208.131 256.4327,-198.9743 256.4327,-190.4166"/>
<polygon fill="#000000" stroke="#000000" points="259.9328,-190.4132 256.4327,-180.4133 252.9328,-190.4133 259.9328,-190.4132"/>
</g>
<!-- undefined -->
<g id="node8" class="node">
<title>undefined</title>
<ellipse fill="none" stroke="#000000" cx="302.4327" cy="-90" rx="49.802" ry="18"/>
<text text-anchor="middle" x="302.4327" y="-85.8" font-family="Times,serif" font-size="14.00" fill="#000000">undefined</text>
</g>
<!-- yes&#45;&gt;undefined -->
<g id="edge7" class="edge">
<title>yes&#45;&gt;undefined</title>
<path fill="none" stroke="#000000" d="M270.9268,-218.8095C279.6611,-208.6618 290.0965,-194.5485 295.4327,-180 302.6621,-160.29 304.2423,-136.5643 304.106,-118.4223"/>
<polygon fill="#000000" stroke="#000000" points="307.5991,-118.1043 303.8459,-108.1965 300.6014,-118.2823 307.5991,-118.1043"/>
</g>
<!-- quit -->
<g id="node11" class="node">
<title>quit</title>
<ellipse fill="none" stroke="#000000" cx="435.4327" cy="-162" rx="27" ry="18"/>
<text text-anchor="middle" x="435.4327" y="-157.8" font-family="Times,serif" font-size="14.00" fill="#000000">quit</text>
</g>
<!-- no&#45;&gt;quit -->
<g id="edge14" class="edge">
<title>no&#45;&gt;quit</title>
<path fill="none" stroke="#000000" d="M435.4327,-215.8314C435.4327,-208.131 435.4327,-198.9743 435.4327,-190.4166"/>
<polygon fill="#000000" stroke="#000000" points="438.9328,-190.4132 435.4327,-180.4133 431.9328,-190.4133 438.9328,-190.4132"/>
</g>
<!-- is_input_num -->
<g id="node9" class="node">
<title>is_input_num</title>
<ellipse fill="none" stroke="#000000" cx="94.4327" cy="-90" rx="64.3094" ry="18"/>
<text text-anchor="middle" x="94.4327" y="-85.8" font-family="Times,serif" font-size="14.00" fill="#000000">is_input_num</text>
</g>
<!-- celsius&#45;&gt;is_input_num -->
<g id="edge8" class="edge">
<title>celsius&#45;&gt;is_input_num</title>
<path fill="none" stroke="#000000" d="M84.7131,-143.8314C86.1035,-136.131 87.7568,-126.9743 89.3019,-118.4166"/>
<polygon fill="#000000" stroke="#000000" points="92.7755,-118.8761 91.1081,-108.4133 85.8869,-117.6322 92.7755,-118.8761"/>
</g>
<!-- NaN -->
<g id="node10" class="node">
<title>NaN</title>
<ellipse fill="none" stroke="#000000" cx="205.4327" cy="-90" rx="29.0337" ry="18"/>
<text text-anchor="middle" x="205.4327" y="-85.8" font-family="Times,serif" font-size="14.00" fill="#000000">NaN</text>
</g>
<!-- celsius&#45;&gt;NaN -->
<g id="edge11" class="edge">
<title>celsius&#45;&gt;NaN</title>
<path fill="none" stroke="#000000" d="M105.3411,-148.1177C125.293,-136.5327 153.8374,-119.9586 175.3416,-107.4723"/>
<polygon fill="#000000" stroke="#000000" points="177.1907,-110.4459 184.0811,-102.3977 173.6757,-104.3924 177.1907,-110.4459"/>
</g>
<!-- inches&#45;&gt;is_input_num -->
<g id="edge9" class="edge">
<title>inches&#45;&gt;is_input_num</title>
<path fill="none" stroke="#000000" d="M155.122,-146.0209C145.0572,-136.7304 132.1667,-124.8314 120.8565,-114.3912"/>
<polygon fill="#000000" stroke="#000000" points="123.055,-111.6574 113.333,-107.4464 118.3071,-116.8011 123.055,-111.6574"/>
</g>
<!-- inches&#45;&gt;NaN -->
<g id="edge12" class="edge">
<title>inches&#45;&gt;NaN</title>
<path fill="none" stroke="#000000" d="M180.59,-144.2022C184.4147,-135.8574 189.0511,-125.7417 193.2778,-116.5197"/>
<polygon fill="#000000" stroke="#000000" points="196.4982,-117.8936 197.4831,-107.3446 190.1348,-114.9769 196.4982,-117.8936"/>
</g>
<!-- liters&#45;&gt;is_input_num -->
<g id="edge10" class="edge">
<title>liters&#45;&gt;is_input_num</title>
<path fill="none" stroke="#000000" d="M232.5399,-150.8868C227.5554,-148.5925 222.3285,-146.2043 217.4327,-144 191.4531,-132.3031 162.2577,-119.4723 138.8322,-109.2537"/>
<polygon fill="#000000" stroke="#000000" points="140.0675,-105.9742 129.5018,-105.1886 137.2715,-112.3915 140.0675,-105.9742"/>
</g>
<!-- liters&#45;&gt;NaN -->
<g id="edge13" class="edge">
<title>liters&#45;&gt;NaN</title>
<path fill="none" stroke="#000000" d="M244.6041,-145.3008C238.2316,-136.3043 230.2419,-125.0247 223.1431,-115.0029"/>
<polygon fill="#000000" stroke="#000000" points="225.8335,-112.7458 217.1972,-106.6087 220.1213,-116.792 225.8335,-112.7458"/>
</g>
<!-- console_message -->
<g id="node12" class="node">
<title>console_message</title>
<polygon fill="none" stroke="#000000" points="359.1209,-36 245.7445,-36 245.7445,0 359.1209,0 359.1209,-36"/>
<text text-anchor="middle" x="302.4327" y="-13.8" font-family="Times,serif" font-size="14.00" fill="#000000">console_message</text>
</g>
<!-- undefined&#45;&gt;console_message -->
<g id="edge19" class="edge">
<title>undefined&#45;&gt;console_message</title>
<path fill="none" stroke="#000000" d="M302.4327,-71.8314C302.4327,-64.131 302.4327,-54.9743 302.4327,-46.4166"/>
<polygon fill="#000000" stroke="#000000" points="305.9328,-46.4132 302.4327,-36.4133 298.9328,-46.4133 305.9328,-46.4132"/>
</g>
<!-- console_result -->
<g id="node13" class="node">
<title>console_result</title>
<polygon fill="none" stroke="#000000" points="96.7982,-36 .0672,-36 .0672,0 96.7982,0 96.7982,-36"/>
<text text-anchor="middle" x="48.4327" y="-13.8" font-family="Times,serif" font-size="14.00" fill="#000000">console_result</text>
</g>
<!-- is_input_num&#45;&gt;console_result -->
<g id="edge16" class="edge">
<title>is_input_num&#45;&gt;console_result</title>
<path fill="none" stroke="#000000" d="M83.0619,-72.2022C77.7392,-63.871 71.2888,-53.7748 65.4048,-44.565"/>
<polygon fill="#000000" stroke="#000000" points="68.3256,-42.6357 59.9922,-36.0931 62.4267,-46.4045 68.3256,-42.6357"/>
</g>
<!-- NaN&#45;&gt;console_message -->
<g id="edge15" class="edge">
<title>NaN&#45;&gt;console_message</title>
<path fill="none" stroke="#000000" d="M224.1353,-76.1177C237.0486,-66.5325 254.5633,-53.5319 269.753,-42.2571"/>
<polygon fill="#000000" stroke="#000000" points="271.9649,-44.9742 277.9085,-36.2035 267.7927,-39.3534 271.9649,-44.9742"/>
</g>
<!-- exit -->
<g id="node14" class="node">
<title>exit</title>
<text text-anchor="middle" x="435.4327" y="-85.8" font-family="Times,serif" font-size="14.00" fill="#000000">exit</text>
</g>
<!-- quit&#45;&gt;exit -->
<g id="edge20" class="edge">
<title>quit&#45;&gt;exit</title>
<path fill="none" stroke="#000000" stroke-dasharray="1,5" d="M435.4327,-143.8314C435.4327,-136.131 435.4327,-126.9743 435.4327,-118.4166"/>
<polygon fill="#000000" stroke="#000000" points="438.9328,-118.4132 435.4327,-108.4133 431.9328,-118.4133 438.9328,-118.4132"/>
</g>
<!-- console_message&#45;&gt;user_input -->
<g id="edge17" class="edge">
<title>console_message&#45;&gt;user_input</title>
<path fill="none" stroke="#000000" stroke-dasharray="1,5" d="M330.8647,-36.0399C342.6555,-45.2199 355.0531,-57.5128 361.4327,-72 392.241,-141.9616 358.811,-233.6797 338.1805,-278.6852"/>
<polygon fill="#000000" stroke="#000000" points="334.9768,-277.2729 333.8763,-287.8105 341.3079,-280.2592 334.9768,-277.2729"/>
</g>
<!-- console_result&#45;&gt;user_input -->
<g id="edge18" class="edge">
<title>console_result&#45;&gt;user_input</title>
<path fill="none" stroke="#000000" stroke-dasharray="1,5" d="M36.6819,-36.1759C30.8469,-46.2858 24.4188,-59.3505 21.4327,-72 10.3123,-119.1068 5.1545,-142.2383 35.4327,-180 96.2102,-255.799 211.6466,-287.0606 276.7238,-299.1053"/>
<polygon fill="#000000" stroke="#000000" points="276.2624,-302.578 286.7199,-300.8772 277.4843,-295.6854 276.2624,-302.578"/>
</g>
</g>
</svg>
